# This file uses centimeters as units for non-parametric coordinates.

mtllib pPlaneShape1.mtl
v -50.000000 0.000000 146.370617
v -50.000000 100.000000 146.370617
v -50.000000 0.000000 -146.370617
v -50.000000 100.000000 -146.370617
vt 0.000000 0.000000
vt 1.000000 0.000000
vt 0.000000 1.000000
vt 1.000000 1.000000
vn -1.000000 0.000000 0.000000
vn -1.000000 0.000000 0.000000
vn -1.000000 0.000000 0.000000
vn -1.000000 0.000000 0.000000
s 1
usemtl lambert2SG
f 1/1/1 2/2/2 3/3/3
f 3/3/3 2/2/2 4/4/4
