# This file uses centimeters as units for non-parametric coordinates.

mtllib pPlaneShape6.mtl
v -50.000000 0.000000 136.825000
v 50.000000 0.000000 136.825000
v -50.000000 100.000000 136.825000
v 50.000000 100.000000 136.825000
vt 0.000000 0.000000
vt 1.000000 0.000000
vt 0.000000 1.000000
vt 1.000000 1.000000
vn 0.000000 0.000000 -1.000000
vn 0.000000 0.000000 -1.000000
vn 0.000000 0.000000 -1.000000
vn 0.000000 0.000000 -1.000000
s 1
usemtl initialShadingGroup
f 1/1/1 3/3/2 2/2/3
f 3/3/2 4/4/4 2/2/3
